HIERARCHY
ROOT root
{
	OFFSET	0	13.1	24.9
	CHANNELS 6  Xposition Yposition Zposition Xrotation Yrotation Zrotation
	JOINT spine_1
	{
		OFFSET	0	9.99999	0
		CHANNELS 3  Xrotation Yrotation Zrotation
		JOINT spine_2
		{
			OFFSET	0	112	-10
			CHANNELS 3  Xrotation Yrotation Zrotation
			JOINT spine_3
			{
				OFFSET	0	206.5	19.3
				CHANNELS 3  Xrotation Yrotation Zrotation
				JOINT spine_4
				{
					OFFSET	0	110.4	14.6
					CHANNELS 3  Xrotation Yrotation Zrotation
					JOINT neck_1
					{
						OFFSET	0	71.8	-50.3
						CHANNELS 3  Xrotation Yrotation Zrotation
						JOINT neck_2
						{
							OFFSET	0	86.2	-25.8
							CHANNELS 3  Xrotation Yrotation Zrotation
							JOINT head_ee
							{
								OFFSET	0	179.8	-8.7
								CHANNELS 3  Xrotation Yrotation Zrotation
								End Site
								{
									OFFSET	1	0	0
								}
							}
						}
					}
					JOINT left_clavicle
					{
						OFFSET	-43.2	22.4	-70.8
						CHANNELS 3  Xrotation Yrotation Zrotation
						JOINT left_shoulder
						{
							OFFSET	-93.9	-5.79999	48.7
							CHANNELS 3  Xrotation Yrotation Zrotation
							JOINT left_elbow
							{
								OFFSET	-291.4	-30.8	15.2
								CHANNELS 3  Xrotation Yrotation Zrotation
								JOINT left_lowarm_twist
								{
									OFFSET	-110.7	-3.89999	13.6
									CHANNELS 3  Xrotation Yrotation Zrotation
									JOINT left_hand
									{
										OFFSET	-110.7	-3.89999	13.6
										CHANNELS 3  Xrotation Yrotation Zrotation
										JOINT left_ee
										{
											OFFSET	-80.8	-5.10001	12.1
											CHANNELS 3  Xrotation Yrotation Zrotation
											End Site
											{
												OFFSET	1	0	0
											}
										}
									}
								}
							}
						}
					}
					JOINT right_clavicle
					{
						OFFSET	43.2	22.4	-70.8
						CHANNELS 3  Xrotation Yrotation Zrotation
						JOINT right_shoulder
						{
							OFFSET	93.9	-5.79999	48.7
							CHANNELS 3  Xrotation Yrotation Zrotation
							JOINT right_elbow
							{
								OFFSET	291.4	-30.8	15.2
								CHANNELS 3  Xrotation Yrotation Zrotation
								JOINT right_lowarm_twist
								{
									OFFSET	110.7	-3.89999	13.6
									CHANNELS 3  Xrotation Yrotation Zrotation
									JOINT right_hand
									{
										OFFSET	110.7	-3.89999	13.6
										CHANNELS 3  Xrotation Yrotation Zrotation
										JOINT right_ee
										{
											OFFSET	80.8	-5.10001	12.1
											CHANNELS 3  Xrotation Yrotation Zrotation
											End Site
											{
												OFFSET	1	0	0
											}
										}
									}
								}
							}
						}
					}
				}
			}
		}
	}
	JOINT left_hip
	{
		OFFSET	-82.8	-127.5	0.300001
		CHANNELS 3  Xrotation Yrotation Zrotation
		JOINT left_knee
		{
			OFFSET	-28.2	-396.7	2.2
			CHANNELS 3  Xrotation Yrotation Zrotation
			JOINT left_ankle
			{
				OFFSET	-11.7	-411.3	35.4
				CHANNELS 3  Xrotation Yrotation Zrotation
				JOINT left_toes
				{
					OFFSET	0	-60	-88.6
					CHANNELS 3  Xrotation Yrotation Zrotation
					JOINT left_foot_ee
					{
						OFFSET	-22.5	-16.5	-42.2
						CHANNELS 3  Xrotation Yrotation Zrotation
						End Site
						{
							OFFSET	1	0	0
						}
					}
				}
			}
		}
	}
	JOINT right_hip
	{
		OFFSET	82.8	-127.5	0.300001
		CHANNELS 3  Xrotation Yrotation Zrotation
		JOINT right_knee
		{
			OFFSET	28.2	-396.7	2.2
			CHANNELS 3  Xrotation Yrotation Zrotation
			JOINT right_ankle
			{
				OFFSET	11.7	-411.3	35.4
				CHANNELS 3  Xrotation Yrotation Zrotation
				JOINT right_toes
				{
					OFFSET	0	-60	-88.6
					CHANNELS 3  Xrotation Yrotation Zrotation
					JOINT right_foot_ee
					{
						OFFSET	22.5	-16.5	-42.2
						CHANNELS 3  Xrotation Yrotation Zrotation
						End Site
						{
							OFFSET	1	0	0
						}
					}
				}
			}
		}
	}
}
MOTION
Frames: 12
Frame Time: 0.02
3574.42 741.953 -1474.73 -5.45272099373 76.4577285021 0.0353506373541 1.76096 0.686133 2.22681 1.76356 0.543082 2.26593 1.78538 0.127477 2.32659 1.77817 0.493222 2.2773 -5.506 16.7339 -2.69981 -5.26657 32.8874 0.285727 -0.0 0.0 -0.0 -1.86553 11.3742 -1.81528 -6.64661 -12.5663 67.4054 1.0399 -27.2541 0.252105 14.2351 0.280205 -1.79216 0.221711 9.96019 5.5522 -0.0 0.0 -0.0 11.8697 14.3061 -23.9225 -15.5959 14.0835 -64.0026 0.427096 11.9462 -0.044687 11.3026 -0.259075 1.41823 1.49085 21.7792 -0.578998 0.0 0.0 0.0 3.65228 21.0219 6.69235 -21.026 0.282032 3.1962 41.1831 13.4975 -5.01564 -30.8018 0.0 0.0 -0.0 0.0 -0.0 13.7316 25.5635 1.79344 -26.8754 -0.151008 -4.08389 35.0232 -4.37488 4.40163 -29.578 0.0 0.0 0.0 0.0 0.0 
3571.60573086 744.255 -1475.73617554 -5.62586147707 73.5610595137 0.0751335395857 1.86977 0.721033 2.35386 1.87267 0.569834 2.39494 1.89677 0.13544 2.45803 1.88872 0.521828 2.40585 -6.06501 16.4381 -3.34705 -5.88103 32.8712 -0.25314 -0.0 0.0 -0.0 -2.15277 11.5778 -2.26926 -6.2822 -12.4517 66.7949 1.03241 -27.0856 0.248681 14.1309 0.279782 -1.77886 0.199548 10.1057 5.46751 -0.0 0.0 -0.0 11.6332 14.1713 -23.3888 -15.5006 13.7857 -64.2245 0.439186 12.2742 -0.0472233 11.4238 -0.260327 1.43366 1.4447 21.6135 -0.351031 0.0 0.0 0.0 3.17819 20.8016 6.6213 -20.2014 0.293191 3.07016 41.1828 13.427 -5.01468 -30.9231 0.0 0.0 -0.0 0.0 -0.0 13.6264 25.8253 1.63257 -26.2722 -0.168705 -3.993 34.262 -3.93698 4.32815 -29.818 0.0 0.0 0.0 0.0 0.0 
3568.09839537 744.68 -1475.06138327 -6.07119303805 71.1741219277 0.553090115763 2.04309 0.595147 2.38312 2.04614 0.442342 2.41614 2.06484 0.0133015 2.45623 2.05664 0.400935 2.42335 -5.95106 16.4174 -3.38363 -5.75076 32.8473 -0.331078 -0.0 0.0 -0.0 -2.16103 11.6807 -2.26589 -5.22773 -12.5049 66.1349 1.09263 -28.424 0.276729 14.2712 0.280345 -1.79677 0.19163 9.79969 5.29446 -0.0 0.0 -0.0 11.6419 14.0945 -23.4109 -15.5551 13.521 -64.192 0.379975 10.6602 -0.0354506 11.5225 -0.261323 1.44623 1.41306 21.4621 -0.211579 0.0 0.0 0.0 3.3749 20.9806 6.71645 -20.383 0.290889 3.09793 41.1735 13.425 -5.01385 -31.0223 0.0 0.0 -0.0 0.0 -0.0 13.5653 25.9404 1.67066 -25.938 -0.178095 -3.94259 34.4536 -4.05739 4.3467 -29.8026 0.0 0.0 0.0 0.0 0.0 
3564.04635541 743.762 -1475.03314677 -5.22202471835 68.6011384488 -0.396630235851 2.0776 0.472281 2.45967 2.08091 0.314858 2.48472 2.09448 -0.123037 2.50155 2.08585 0.273456 2.48961 -5.57298 16.1344 -3.3402 -5.33083 32.2517 -0.45945 -0.0 0.0 -0.0 -2.24893 12.5445 -2.26667 -4.59847 -11.718 65.2904 1.25193 -31.8047 0.356691 13.9217 0.278861 -1.75216 -0.0529188 7.30243 2.69745 -0.0 0.0 -0.0 11.7986 14.1982 -23.7639 -15.324 12.5438 -63.3142 0.229296 6.48041 -0.0129811 11.5403 -0.2615 1.44849 1.47323 21.7907 -0.458054 0.0 0.0 0.0 0.175196 20.4737 8.39893 -15.8918 0.321936 2.40971 41.1599 12.1931 -4.9977 -30.4427 0.0 0.0 -0.0 0.0 -0.0 13.1045 26.2222 1.95896 -25.8783 -0.179744 -3.93356 35.7357 -3.70981 4.47144 -29.7518 0.0 0.0 0.0 0.0 0.0 
3559.80398342 743.084 -1474.9978792 -4.5436925819 66.9761002238 -1.16612056305 2.07163 0.484191 2.43429 2.07487 0.328358 2.46015 2.0889 -0.105688 2.4797 2.08044 0.287139 2.4653 -4.98925 16.1022 -3.49476 -4.66693 32.2424 -0.8059 -0.0 0.0 -0.0 -2.02141 11.456 -2.06667 -4.07726 -12.5485 64.8179 1.33852 -33.5452 0.40344 13.7453 0.278008 -1.72964 0.0099116 7.60444 3.23009 -0.0 0.0 -0.0 11.6501 13.6965 -23.4405 -15.7323 11.7219 -62.7459 0.187899 5.31787 -0.00872616 11.7314 -0.263359 1.47284 1.47667 21.6662 -0.537269 0.0 0.0 0.0 -0.0646909 20.0981 8.45326 -15.6647 0.322072 2.37487 41.3598 11.5925 -5.00838 -30.4673 0.0 0.0 -0.0 0.0 -0.0 12.3967 26.2185 2.45553 -25.7968 -0.181975 -3.92127 36.7622 -3.51656 4.56869 -29.7037 0.0 0.0 0.0 0.0 0.0 
3557.49935579 743.199 -1475.14085216 -5.29098897532 64.5436804626 -0.454711111375 2.08724 0.446677 2.40285 2.0904 0.292918 2.42638 2.10271 -0.134137 2.44031 2.09448 0.252831 2.43089 -4.65317 15.8033 -3.38353 -4.30533 31.5723 -0.843009 -0.0 0.0 -0.0 -2.08618 13.0633 -1.90741 -3.21528 -11.9021 63.8711 1.46348 -35.9385 0.474667 13.3458 0.27582 -1.67866 -0.20112 5.01035 0.774894 -0.0 0.0 -0.0 11.5713 13.6847 -23.2622 -15.6486 10.9819 -62.6842 0.194821 5.51259 -0.00937934 12.3969 -0.269198 1.55764 1.40593 21.1883 -0.288466 0.0 0.0 0.0 -3.17354 20.3305 9.98939 -8.45217 0.254632 1.27099 41.3631 10.8921 -5.0018 -31.8552 0.0 0.0 -0.0 0.0 -0.0 12.6955 25.8582 2.444 -25.5082 -0.189744 -3.87765 36.2335 -3.53443 4.51908 -29.3633 0.0 0.0 0.0 0.0 0.0 
3550.62896963 744.264 -1478.72061073 -4.61603751482 62.9652661862 -1.43523031329 2.02081 0.399838 2.42278 2.02404 0.244907 2.4433 2.03441 -0.187327 2.44839 2.0261 0.201582 2.44725 -4.35308 15.8599 -3.65583 -3.95257 31.8455 -1.20803 -0.0 0.0 -0.0 -2.03404 13.1701 -1.80314 -2.89363 -11.027 63.4593 1.61675 -38.6879 0.567604 13.417 0.276236 -1.68775 -0.263023 4.26662 0.0546114 -0.0 0.0 -0.0 11.3757 13.6932 -22.8198 -15.7427 10.4823 -62.3812 0.177161 5.01558 -0.00775923 12.8465 -0.272585 1.61497 1.38012 20.7807 -0.30244 0.0 0.0 0.0 -6.19404 19.8751 11.4632 -4.35873 0.154762 0.650871 39.8386 10.4727 -4.86593 -32.7088 0.0 0.0 -0.0 0.0 -0.0 12.0135 25.4675 2.94696 -26.2103 -0.170465 -3.98368 36.5852 -3.38165 4.55252 -29.1944 0.0 0.0 0.0 0.0 0.0 
3550.76747488 744.264 -1479.47301123 -4.34826882433 61.1536789609 -1.73829196154 2.02081 0.399838 2.42278 2.02404 0.244907 2.4433 2.03441 -0.187327 2.44839 2.0261 0.201582 2.44725 -4.35308 15.8599 -3.65583 -3.95257 31.8455 -1.20803 -0.0 0.0 -0.0 -2.03404 13.1701 -1.80314 -2.89363 -11.027 63.4593 1.61675 -38.6879 0.567604 13.417 0.276236 -1.68775 -0.263023 4.26662 0.0546114 -0.0 0.0 -0.0 11.3757 13.6932 -22.8198 -15.7427 10.4823 -62.3812 0.177161 5.01558 -0.00775923 12.8465 -0.272585 1.61497 1.38012 20.7807 -0.30244 0.0 0.0 0.0 -6.19404 19.8751 11.4632 -4.35873 0.154762 0.650871 39.8386 10.4727 -4.86593 -32.7088 0.0 0.0 -0.0 0.0 -0.0 12.0135 25.4675 2.94696 -26.2103 -0.170465 -3.98368 36.5852 -3.38165 4.55252 -29.1944 0.0 0.0 0.0 0.0 0.0 
3550.98205736 744.264 -1480.43972371 -4.0501444751 58.8078825766 -2.08253060904 2.02081 0.399838 2.42278 2.02404 0.244907 2.4433 2.03441 -0.187327 2.44839 2.0261 0.201582 2.44725 -4.35308 15.8599 -3.65583 -3.95257 31.8455 -1.20803 -0.0 0.0 -0.0 -2.03404 13.1701 -1.80314 -2.89363 -11.027 63.4593 1.61675 -38.6879 0.567604 13.417 0.276236 -1.68775 -0.263023 4.26662 0.0546114 -0.0 0.0 -0.0 11.3757 13.6932 -22.8198 -15.7427 10.4823 -62.3812 0.177161 5.01558 -0.00775923 12.8465 -0.272585 1.61497 1.38012 20.7807 -0.30244 0.0 0.0 0.0 -6.19404 19.8751 11.4632 -4.35873 0.154762 0.650871 39.8386 10.4727 -4.86593 -32.7088 0.0 0.0 -0.0 0.0 -0.0 12.0135 25.4675 2.94696 -26.2103 -0.170465 -3.98368 36.5852 -3.38165 4.55252 -29.1944 0.0 0.0 0.0 0.0 0.0 
3551.32896968 744.264 -1481.7115771 -3.72023753237 55.6835220434 -2.47466445436 2.02081 0.399838 2.42278 2.02404 0.244907 2.4433 2.03441 -0.187327 2.44839 2.0261 0.201582 2.44725 -4.35308 15.8599 -3.65583 -3.95257 31.8455 -1.20803 -0.0 0.0 -0.0 -2.03404 13.1701 -1.80314 -2.89363 -11.027 63.4593 1.61675 -38.6879 0.567604 13.417 0.276236 -1.68775 -0.263023 4.26662 0.0546114 -0.0 0.0 -0.0 11.3757 13.6932 -22.8198 -15.7427 10.4823 -62.3812 0.177161 5.01558 -0.00775923 12.8465 -0.272585 1.61497 1.38012 20.7807 -0.30244 0.0 0.0 0.0 -6.19404 19.8751 11.4632 -4.35873 0.154762 0.650871 39.8386 10.4727 -4.86593 -32.7088 0.0 0.0 -0.0 0.0 -0.0 12.0135 25.4675 2.94696 -26.2103 -0.170465 -3.98368 36.5852 -3.38165 4.55252 -29.1944 0.0 0.0 0.0 0.0 0.0 
3551.9452172 744.264 -1483.4948296 -3.34740117928 51.2096727567 -2.9384395622 2.02081 0.399838 2.42278 2.02404 0.244907 2.4433 2.03441 -0.187327 2.44839 2.0261 0.201582 2.44725 -4.35308 15.8599 -3.65583 -3.95257 31.8455 -1.20803 -0.0 0.0 -0.0 -2.03404 13.1701 -1.80314 -2.89363 -11.027 63.4593 1.61675 -38.6879 0.567604 13.417 0.276236 -1.68775 -0.263023 4.26662 0.0546114 -0.0 0.0 -0.0 11.3757 13.6932 -22.8198 -15.7427 10.4823 -62.3812 0.177161 5.01558 -0.00775923 12.8465 -0.272585 1.61497 1.38012 20.7807 -0.30244 0.0 0.0 0.0 -6.19404 19.8751 11.4632 -4.35873 0.154762 0.650871 39.8386 10.4727 -4.86593 -32.7088 0.0 0.0 -0.0 0.0 -0.0 12.0135 25.4675 2.94696 -26.2103 -0.170465 -3.98368 36.5852 -3.38165 4.55252 -29.1944 0.0 0.0 0.0 0.0 0.0 
3513.18682821 736.778 -1515.84276776 -3.21119794206 49.3062159065 -4.82991498909 1.91628 0.807192 2.59968 1.91981 0.640191 2.64573 1.94967 0.162725 2.71717 1.93985 0.589657 2.65744 -3.57539 15.6791 -3.54938 -3.09688 31.3449 -1.35567 -0.0 0.0 -0.0 -2.60434 15.848 -2.26062 -5.41922 -10.445 63.5061 2.26163 -48.2419 1.01277 12.5054 0.270057 -1.57147 -0.144618 0.0536506 -0.942995 -0.0 0.0 -0.0 12.4007 13.62 -25.1548 -16.1825 8.30382 -59.8979 0.218317 6.17258 -0.0117713 15.5659 -0.283476 1.96211 0.762943 15.9078 1.64894 0.0 0.0 0.0 -11.2962 19.9015 13.7462 4.23046 -0.197184 -0.618984 33.3963 12.7397 -4.27156 -34.4389 0.0 0.0 -0.0 0.0 -0.0 5.19562 23.4529 7.06951 -24.8561 -0.206481 -3.77898 38.9291 8.57578 4.90169 -26.513 0.0 0.0 0.0 0.0 0.0 
